<svg width="40" height="40" viewBox="0 0 40 40" fill="none" xmlns="http://www.w3.org/2000/svg">
<circle cx="20" cy="20" r="18.5" fill="#F1FAEE" stroke="black"/>
<path d="M7.53548 27.4262C7.5297 27.4264 7.52319 27.4266 7.51604 27.4269C7.50588 27.4273 7.49462 27.4278 7.48245 27.4285C7.54488 27.4778 7.61994 27.5328 7.70962 27.5937C8.79675 28.2515 9.60898 29.2801 9.99567 30.4899L9.99721 30.4948M7.53548 27.4262L9.99721 30.4948M7.53548 27.4262C8.01612 27.4996 8.47447 27.6789 8.87716 27.9514C9.28944 28.2303 9.63248 28.5993 9.88022 29.0304C10.4423 30.0352 11.3805 30.7761 12.4889 31.0907C13.5983 31.4056 14.7875 31.2678 15.7952 30.7074L16.0294 30.5772L16.0507 30.3102C16.1135 29.5222 16.4614 28.7839 17.0297 28.2331L17.7874 27.4988L16.7394 27.3773C14.7785 27.15 12.8554 26.6646 11.4232 25.4601C10.0154 24.2762 9.00537 22.3303 9.00537 19.0059H9.00544L9.00531 18.9977C8.97831 17.3429 9.59256 15.7414 10.7201 14.5277L10.9265 14.3054L10.8248 14.0197C10.3487 12.6822 10.3718 11.2214 10.8842 9.90388C11.0373 9.89974 11.2779 9.91184 11.6121 9.98164C12.34 10.1336 13.5159 10.5602 15.1957 11.6929L15.3856 11.8209L15.6066 11.7607C18.4619 10.9832 21.4736 10.9832 24.3289 11.7607L24.5504 11.8211L24.7405 11.6924C26.4138 10.5599 27.5863 10.1335 28.3123 9.9816C28.6456 9.91187 28.8856 9.89976 29.0384 9.90387C29.5508 11.2214 29.574 12.6822 29.0979 14.0197L28.9962 14.3054L29.2026 14.5277C30.3301 15.7414 30.9443 17.3429 30.9174 18.9977L30.9173 18.9977V19.0059C30.9173 22.3438 29.9069 24.2886 28.4973 25.4672C27.0628 26.6666 25.1342 27.1431 23.1596 27.3643L22.1347 27.4791L22.8596 28.2126C23.2383 28.5959 23.5304 29.0558 23.716 29.5612C23.9017 30.0666 23.9767 30.6058 23.936 31.1425L23.9346 31.1614V31.1803V36.1014C23.9346 36.4741 24.0361 36.9105 24.3996 37.2067C24.762 37.5019 25.2584 37.5543 25.8098 37.4515L25.8436 37.4452L25.8762 37.4344C30.041 36.0468 33.5746 33.2233 35.8434 29.4699C38.1121 25.7165 38.9674 21.2788 38.2558 16.9527C37.5442 12.6266 35.3123 8.69527 31.9606 5.86355C28.609 3.03203 24.357 1.48516 19.9669 1.50011C15.5824 1.50089 11.3411 3.05892 8.00158 5.89572C4.66182 8.73271 2.44181 12.6636 1.73888 16.9853C1.03595 21.307 1.896 25.7374 4.16508 29.4839C6.43414 33.2304 9.96413 36.0485 14.1234 37.4344L14.1563 37.4453L14.1903 37.4516C14.7543 37.5562 15.2366 37.4455 15.5829 37.1529C15.918 36.8698 16.0651 36.4661 16.0651 36.1014V33.0514V32.4321L15.4597 32.5626C13.0948 33.0724 11.7447 32.4931 10.9893 31.8658C10.6014 31.5436 10.35 31.192 10.1963 30.9223C10.1196 30.7878 10.068 30.675 10.0365 30.5988C10.0207 30.5607 10.0101 30.532 10.0039 30.5144L9.99812 30.4976M7.53548 27.4262L9.99812 30.4976M9.99721 30.4948L9.99786 30.4968M9.99721 30.4948L9.99786 30.4968M9.99786 30.4968L9.99812 30.4976M9.99786 30.4968L9.99812 30.4976" fill="#457B9D" stroke="black"/>
</svg>
