<svg width="40" height="40" viewBox="0 0 40 40" fill="none" xmlns="http://www.w3.org/2000/svg">
<circle cx="20" cy="20" r="17.75" fill="#F1FAEE" stroke="black" stroke-width="0.5"/>
<g style="mix-blend-mode:darken">
<path d="M15.5937 27.9606H16.0937V27.4606V15.7306V15.2306H15.5937H11.9487H11.4487V15.7306V27.4606V27.9606H11.9487H15.5937ZM16.2137 12.4662H16.2139L16.2136 12.4553C16.1999 11.8256 15.9707 11.2421 15.5389 10.8146C15.1051 10.3851 14.4998 10.1456 13.7956 10.1456C13.0931 10.1456 12.4784 10.3839 12.0365 10.8099C11.5945 11.236 11.3531 11.8237 11.3531 12.4662C11.3531 13.7511 12.3214 14.7906 13.7487 14.7906C14.4744 14.7906 15.0961 14.5463 15.5387 14.1147C15.9804 13.6841 16.2137 13.0958 16.2137 12.4662ZM24.7612 27.4606V27.9606H25.2612H28.9062V27.4606H29.4062V20.525C29.4062 18.7151 28.9346 17.3167 28.0792 16.3652C27.2188 15.4082 26.0245 14.9644 24.71 14.9644C23.2073 14.9644 22.1138 15.5611 21.4002 16.2175L21.3449 15.6778L21.2989 15.2287H20.8475H17.6806H17.157L17.1812 15.7519C17.2297 16.8021 17.2762 18.0178 17.2762 19.4713V27.4587V27.9587H17.7762H21.4231H21.9231V27.4587V20.6956C21.9231 20.3618 21.9509 20.1127 22.0077 19.9738L22.0078 19.9738L22.01 19.968C22.2302 19.4105 22.6863 18.9194 23.4144 18.9194C23.9212 18.9194 24.2197 19.1047 24.4159 19.3994C24.6342 19.7272 24.7612 20.2473 24.7612 20.96V27.4606ZM2.5 20C2.5 10.3349 10.3349 2.5 20 2.5C29.6651 2.5 37.5 10.3349 37.5 20C37.5 29.6651 29.6651 37.5 20 37.5C10.3349 37.5 2.5 29.6651 2.5 20Z" fill="#457B9D"/>
<path d="M15.5937 27.9606H16.0937V27.4606V15.7306V15.2306H15.5937H11.9487H11.4487V15.7306V27.4606V27.9606H11.9487H15.5937ZM16.2137 12.4662H16.2139L16.2136 12.4553C16.1999 11.8256 15.9707 11.2421 15.5389 10.8146C15.1051 10.3851 14.4998 10.1456 13.7956 10.1456C13.0931 10.1456 12.4784 10.3839 12.0365 10.8099C11.5945 11.236 11.3531 11.8237 11.3531 12.4662C11.3531 13.7511 12.3214 14.7906 13.7487 14.7906C14.4744 14.7906 15.0961 14.5463 15.5387 14.1147C15.9804 13.6841 16.2137 13.0958 16.2137 12.4662ZM24.7612 27.4606V27.9606H25.2612H28.9062V27.4606H29.4062V20.525C29.4062 18.7151 28.9346 17.3167 28.0792 16.3652C27.2188 15.4082 26.0245 14.9644 24.71 14.9644C23.2073 14.9644 22.1138 15.5611 21.4002 16.2175L21.3449 15.6778L21.2989 15.2287H20.8475H17.6806H17.157L17.1812 15.7519C17.2297 16.8021 17.2762 18.0178 17.2762 19.4713V27.4587V27.9587H17.7762H21.4231H21.9231V27.4587V20.6956C21.9231 20.3618 21.9509 20.1127 22.0077 19.9738L22.0078 19.9738L22.01 19.968C22.2302 19.4105 22.6863 18.9194 23.4144 18.9194C23.9212 18.9194 24.2197 19.1047 24.4159 19.3994C24.6342 19.7272 24.7612 20.2473 24.7612 20.96V27.4606ZM2.5 20C2.5 10.3349 10.3349 2.5 20 2.5C29.6651 2.5 37.5 10.3349 37.5 20C37.5 29.6651 29.6651 37.5 20 37.5C10.3349 37.5 2.5 29.6651 2.5 20Z" stroke="black"/>
</g>
<path d="M28.5 28H29.5V26.5" stroke="black"/>
</svg>
