<svg width="40" height="40" viewBox="0 0 40 40" fill="none" xmlns="http://www.w3.org/2000/svg">
<circle cx="20" cy="20" r="17.75" fill="#457B9D" stroke="black" stroke-width="0.5"/>
<rect x="10" y="12" width="20" height="16" fill="#F1FAEE"/>
<path d="M12.4737 11H27.5263C28.4476 11 29.3311 11.3793 29.9826 12.0544C30.634 12.7295 31 13.6452 31 14.6V25.4C31 26.3548 30.634 27.2705 29.9826 27.9456C29.3311 28.6207 28.4476 29 27.5263 29H12.4737C11.5524 29 10.6689 28.6207 10.0174 27.9456C9.36598 27.2705 9 26.3548 9 25.4V14.6C9 13.6452 9.36598 12.7295 10.0174 12.0544C10.6689 11.3793 11.5524 11 12.4737 11ZM12.4737 12.2C11.9086 12.2 11.3899 12.41 10.9881 12.7592L20 18.824L29.0119 12.7592C28.5957 12.3973 28.0696 12.1993 27.5263 12.2H12.4737ZM20 20.2544L10.3131 13.736C10.2103 14.0116 10.1577 14.3045 10.1579 14.6V25.4C10.1579 26.0365 10.4019 26.647 10.8362 27.0971C11.2705 27.5471 11.8595 27.8 12.4737 27.8H27.5263C28.1405 27.8 28.7295 27.5471 29.1638 27.0971C29.5981 26.647 29.8421 26.0365 29.8421 25.4V14.6C29.8421 14.2952 29.7877 14.0036 29.6869 13.736L20 20.2532V20.2544Z" fill="black"/>
</svg>
