<?xml version="1.0" standalone="no"?>
<!DOCTYPE svg PUBLIC "-//W3C//DTD SVG 20010904//EN"
 "http://www.w3.org/TR/2001/REC-SVG-20010904/DTD/svg10.dtd">
<svg version="1.0" xmlns="http://www.w3.org/2000/svg"
 width="987.000000pt" height="987.000000pt" viewBox="0 0 987.000000 987.000000"
 preserveAspectRatio="xMidYMid meet">
<metadata>
Created by potrace 1.14, written by Peter Selinger 2001-2017
</metadata>
<g transform="translate(0.000000,987.000000) scale(0.100000,-0.100000)"
fill="#000000" stroke="none">
<path d="M4430 9720 c-118 -35 -184 -130 -215 -310 -3 -19 -15 -87 -26 -150
-11 -63 -22 -126 -24 -140 -2 -14 -12 -66 -21 -116 l-17 -90 -183 -45 c-159
-38 -184 -42 -192 -29 -14 24 -234 309 -323 421 -89 112 -144 144 -246 143
-67 0 -78 -3 -185 -58 -62 -32 -133 -69 -158 -83 -25 -13 -99 -53 -165 -87
-264 -139 -303 -160 -370 -198 -109 -61 -155 -136 -155 -254 0 -49 13 -96 156
-533 19 -58 34 -108 34 -113 0 -4 -61 -61 -136 -127 -115 -101 -140 -118 -158
-111 -11 4 -55 24 -96 43 -258 119 -430 196 -464 207 -61 19 -165 8 -220 -24
-52 -30 -83 -67 -191 -226 -124 -182 -207 -303 -224 -326 -9 -12 -22 -30 -28
-40 -7 -11 -35 -52 -63 -91 -105 -151 -114 -170 -114 -253 -1 -119 13 -139
278 -401 l229 -226 -51 -129 c-28 -71 -57 -148 -64 -171 -7 -25 -19 -44 -28
-44 -23 -2 -89 -5 -255 -13 -405 -18 -451 -28 -525 -112 -52 -60 -64 -97 -85
-279 -3 -27 -8 -66 -10 -85 -3 -19 -7 -59 -11 -88 -3 -29 -7 -61 -9 -70 -1 -9
-6 -46 -10 -82 -4 -36 -9 -73 -11 -83 -2 -10 -6 -45 -9 -78 -4 -33 -8 -70 -11
-82 -9 -46 -18 -164 -16 -211 3 -65 26 -112 81 -165 58 -56 101 -75 336 -146
105 -31 227 -68 273 -82 l82 -25 1 -37 c0 -20 2 -45 4 -56 2 -11 7 -49 10 -85
4 -36 8 -72 10 -80 2 -8 7 -36 10 -61 l6 -46 -183 -109 c-101 -60 -199 -117
-218 -128 -174 -94 -252 -189 -252 -306 0 -59 8 -82 222 -640 56 -146 105
-274 110 -285 16 -39 78 -101 126 -125 66 -34 166 -34 317 -1 26 6 64 14 85
17 20 3 43 7 51 10 8 2 30 7 50 10 20 3 42 7 50 10 8 2 30 7 50 10 20 3 64 11
97 18 l61 13 16 -27 c9 -14 54 -81 101 -148 47 -67 86 -126 86 -131 0 -4 -66
-113 -147 -242 -183 -292 -197 -322 -197 -414 0 -109 28 -151 210 -310 32 -27
69 -61 83 -74 14 -13 50 -44 80 -70 30 -25 59 -51 65 -56 59 -57 284 -255 309
-274 72 -54 168 -71 247 -44 60 21 98 48 348 249 l214 172 56 -34 c32 -18 104
-57 162 -86 104 -52 105 -53 104 -88 -2 -52 -15 -317 -19 -375 -11 -162 -7
-250 14 -307 24 -61 74 -118 129 -144 18 -8 223 -63 455 -122 355 -89 435
-106 502 -106 140 -1 207 54 284 234 18 41 42 95 53 120 11 25 29 65 40 90 10
25 26 61 34 80 9 19 30 68 47 108 l32 74 183 0 c101 0 187 -3 192 -8 4 -5 29
-58 55 -119 26 -60 55 -128 65 -150 10 -22 37 -85 61 -140 58 -134 81 -172
130 -222 53 -54 120 -78 198 -70 44 4 492 108 674 157 20 5 54 15 75 20 20 6
59 15 87 21 112 23 188 79 227 166 17 38 22 68 22 143 0 88 -9 269 -19 350 -2
19 -6 82 -9 140 l-6 105 97 47 c54 27 127 64 161 83 62 34 70 35 102 8 8 -7
92 -74 185 -148 94 -75 185 -149 204 -165 97 -82 212 -110 309 -75 47 17 122
77 313 249 25 22 74 66 109 96 35 30 71 62 80 70 8 8 47 42 85 75 201 174 237
225 236 333 0 71 -30 144 -110 267 -28 44 -54 88 -57 98 -4 9 -10 17 -15 17
-5 0 -9 4 -9 9 0 5 -36 68 -81 140 l-80 130 73 103 c41 57 87 124 103 150 17
27 33 48 37 48 3 0 64 -12 135 -26 70 -14 139 -27 153 -30 14 -3 84 -16 155
-30 195 -38 266 -35 339 13 62 40 84 69 126 168 5 11 41 106 80 210 40 105 82
217 95 250 121 314 127 332 131 395 6 127 -60 212 -253 321 -23 13 -87 51
-143 84 -56 33 -134 79 -174 101 -79 47 -78 43 -61 164 12 91 13 102 21 175 3
39 7 71 8 72 1 1 101 32 221 68 364 109 410 127 465 177 53 49 89 133 85 199
-3 37 -13 136 -19 184 -2 17 -7 62 -11 100 -4 39 -9 78 -11 88 -2 10 -6 48
-10 85 -3 36 -7 73 -9 82 -1 8 -6 42 -9 75 -4 33 -9 74 -11 90 -2 17 -6 57
-10 90 -17 177 -57 250 -165 302 -49 23 -87 30 -195 37 -62 4 -121 8 -380 22
-33 1 -76 3 -96 3 l-36 1 -45 123 c-24 67 -54 145 -65 173 l-21 51 227 229
c260 262 276 285 275 399 0 44 -7 82 -17 101 -38 73 -502 744 -543 786 -49 50
-97 71 -171 76 -70 5 -121 -9 -236 -62 -39 -19 -157 -73 -260 -120 l-189 -86
-56 54 c-31 29 -75 69 -97 87 -22 19 -53 46 -70 61 -16 16 -33 28 -37 28 -18
0 -20 -6 118 413 65 197 76 277 50 355 -30 90 -72 121 -387 286 -156 83 -297
157 -314 166 -105 59 -235 119 -265 125 -67 12 -75 12 -124 -1 -89 -24 -120
-52 -275 -254 -44 -58 -88 -114 -96 -125 -9 -11 -44 -57 -78 -102 -34 -45 -69
-82 -77 -83 -9 0 -47 9 -85 19 -39 10 -114 29 -167 41 -101 22 -102 22 -113
85 -3 17 -7 41 -10 55 -6 33 -31 177 -55 314 -11 60 -26 132 -34 160 -32 108
-100 180 -194 205 -46 13 -960 14 -1002 1z m815 -1773 c17 -3 68 -11 115 -17
442 -58 895 -231 1283 -492 49 -33 96 -66 105 -73 10 -8 62 -50 117 -93 139
-110 334 -304 440 -437 22 -27 43 -52 46 -55 11 -10 135 -186 175 -250 79
-124 113 -186 177 -320 147 -306 242 -638 281 -975 23 -193 23 -585 1 -690 -2
-11 -7 -42 -10 -70 -3 -27 -8 -59 -10 -70 -3 -11 -7 -38 -10 -60 -11 -80 -76
-325 -120 -453 -291 -850 -959 -1542 -1802 -1868 -97 -38 -233 -82 -303 -99
-8 -2 -40 -10 -70 -19 -30 -8 -104 -24 -165 -35 -215 -40 -287 -45 -565 -45
-216 -1 -312 4 -400 19 -14 2 -45 7 -70 11 -25 4 -54 8 -65 9 -174 26 -466
115 -685 208 -19 8 -37 15 -40 16 -3 0 -64 32 -137 70 -200 106 -348 201 -520
336 -43 34 -215 186 -223 197 -4 4 -40 43 -81 85 -299 311 -525 680 -675 1102
-47 131 -119 409 -129 501 -4 30 -8 57 -10 60 -2 3 -6 33 -10 67 -3 34 -8 72
-11 85 -9 41 -12 441 -4 533 10 104 18 180 25 215 2 14 7 41 9 60 37 274 169
654 328 948 171 316 448 661 698 867 25 21 47 40 50 44 12 16 202 153 295 213
254 163 507 279 795 365 111 32 129 37 188 48 15 3 33 8 40 10 14 5 127 25
177 31 17 2 39 6 50 8 11 3 56 8 100 12 44 4 82 8 84 10 6 5 503 -3 536 -9z"/>
<path d="M4800 7046 c-25 -8 -52 -15 -60 -17 -8 -2 -17 -6 -20 -9 -3 -3 -21
-13 -40 -23 -186 -94 -292 -352 -230 -557 110 -362 554 -476 818 -209 255 258
143 701 -205 809 -68 21 -200 24 -263 6z"/>
<path d="M4735 5958 c-41 -32 -42 -15 29 -458 8 -49 35 -218 42 -260 27 -177
46 -230 94 -259 18 -10 39 -18 48 -16 10 2 23 4 30 4 7 1 25 14 41 30 32 32
47 86 56 196 3 39 8 97 10 130 3 33 7 78 9 100 3 22 8 74 11 115 3 41 8 89 10
105 25 188 23 270 -6 301 -22 23 -25 24 -133 18 -61 -4 -135 -2 -164 4 -46 8
-56 7 -77 -10z"/>
<path d="M4575 5304 c-16 -9 -275 -140 -575 -291 -810 -410 -834 -422 -847
-440 -19 -25 -16 -57 10 -80 18 -17 282 -165 777 -436 30 -16 89 -49 130 -72
41 -23 100 -56 130 -72 30 -17 137 -76 238 -132 101 -55 184 -101 186 -101 2
0 43 -23 92 -51 109 -63 152 -79 218 -80 65 -1 105 14 279 104 78 41 228 118
332 172 105 54 249 128 320 165 72 37 225 116 340 175 116 60 273 141 350 181
78 41 149 84 160 99 18 24 18 28 5 51 -8 14 -49 44 -90 66 -41 21 -111 59
-155 82 -44 24 -125 67 -180 96 -55 29 -161 85 -235 125 -74 40 -189 100 -255
135 -66 34 -133 70 -150 80 -28 16 -206 110 -340 179 -123 64 -158 37 -169
-134 -14 -193 -20 -218 -63 -257 -42 -38 -133 -53 -207 -34 -40 10 -95 64
-106 104 -11 41 -20 102 -36 227 -5 33 -9 63 -10 68 -1 4 -2 14 -3 22 0 9 -13
27 -27 40 -31 29 -75 32 -119 9z"/>
<path d="M3121 4340 c-8 -4 -13 -18 -13 -31 0 -27 239 -625 273 -685 42 -74
129 -145 279 -229 193 -107 232 -129 320 -179 41 -24 95 -54 120 -68 25 -14
187 -105 360 -203 428 -242 382 -220 475 -220 91 0 54 -17 425 195 275 156
461 261 485 274 11 6 124 70 250 141 321 182 325 185 483 525 22 47 62 132 89
190 93 198 95 204 80 219 -22 22 -12 26 -322 -133 -104 -54 -235 -122 -290
-151 -55 -29 -215 -111 -355 -183 -140 -72 -316 -163 -390 -201 -284 -148
-375 -190 -419 -195 -89 -9 -120 2 -351 132 -25 13 -74 41 -110 60 -36 19
-105 58 -155 85 -49 28 -108 60 -130 72 -22 12 -60 33 -85 47 -25 14 -137 76
-250 138 -113 62 -223 123 -245 135 -22 12 -60 33 -85 47 -25 14 -115 64 -201
111 -183 102 -220 119 -238 107z"/>
</g>
</svg>
